inDegrees=yes
name=ik_rai_2
DataType=double
version=3
OpenSimVersion=4.5
endheader
time	gndpitch	gndroll	gndyaw	spine_tx	spine_ty	spine_tz	pitch2	roll2	yaw2	aux7jnt_r3	aux7jnt_r1	aux7jnt_r2	aux6jnt_r3	aux6jnt_r1	aux6jnt_r2	aux5jnt_r3	aux5jnt_r1	aux5jnt_r2	aux4jnt_r3	aux4jnt_r1	aux4jnt_r2	aux3jnt_r3	aux3jnt_r1	aux3jnt_r2	pitch1	roll1	yaw1	aux1jnt_r3	aux1jnt_r1	aux1jnt_r2
35.22499999999907	4.21296440140691e-09	8.002416233845703e-10	4.440363815649541e-10	-3.97872216927308e-17	8.44526185968539e-17	-7.30666612219483e-19	-0.1975474330006579	0.1064131846037616	0.1450041378456124	-2.116586469454766	0.8352918780400327	1.561927330363397	-2.490095625149706	0.9572338026217847	1.819478113941799	-2.490095625149706	1.316956716131444	1.819478113941799	-1.867571718862277	1.316956716131444	1.819478113941799	-1.245047812574853	1.195018284886971	0.7809636651816984	0.2588429430167952	-0.09108487384745341	-0.104406031359647	8.24581407582556	-2.609389424470302	-0.6640060378957829
35.24999999999907	4.21296440140691e-09	8.002416233845703e-10	4.440363815649541e-10	-3.97872216927308e-17	8.44526185968539e-17	-7.30666612219483e-19	-0.1981291885050566	0.1069162742928427	0.1474103075738669	-2.122819584258828	0.8392408880502087	1.587845640805374	-2.497428683415289	0.961759317556163	1.849670170692962	-2.497428683415289	1.323182893341709	1.849670170692962	-1.873071512561467	1.323182893341709	1.849670170692962	-1.248714341707644	1.200667973688494	0.7939228204026868	0.2550978711119796	-0.09117588014982268	-0.1049242060723722	8.12650942618826	-2.611996562987732	-0.6673015480636697
35.27499999999907	4.21296440140691e-09	8.002416233845703e-10	4.440363815649541e-10	-3.97872216927308e-17	8.44526185968539e-17	-7.30666612219483e-19	-0.1957959132987932	0.107346521957455	0.1516887450547819	-2.097820126376349	0.8426181235040178	1.633931280373866	-2.468017628585898	0.9656295861661972	1.903355006684897	-2.468017628585898	1.328507586457709	1.903355006684897	-1.851013221439423	1.328507586457709	1.903355006684897	-1.234008814292949	1.205499647772452	0.816965640186933	0.2484021328389523	-0.09129872923276858	-0.1074559729404804	7.913207057360724	-2.615515929972655	-0.6834031895596228
35.29999999999907	4.21296440140691e-09	8.002416233845703e-10	4.440363815649541e-10	-3.97872216927308e-17	8.44526185968539e-17	-7.30666612219483e-19	-0.1920532385237359	0.1077010727063581	0.1588159895194981	-2.057719910098525	0.8454011748901251	1.710703144163532	-2.42084101919054	0.9688189274386971	1.992786008509624	-2.42084101919054	1.332895463690363	1.992786008509624	-1.815630764392906	1.332895463690363	1.992786008509624	-1.21042050959527	1.209481246757927	0.855351572081766	0.2404463832648178	-0.09154879233194839	-0.1128852429770097	7.659765217078891	-2.622679710070135	-0.7179324982468178
35.32499999999906	4.21296440140691e-09	8.002416233845703e-10	4.440363815649541e-10	-3.97872216927308e-17	8.44526185968539e-17	-7.30666612219483e-19	-0.1947299542823005	0.107700087903837	0.1596642464885196	-2.086399100058614	0.8453934446680632	1.719840233371955	-2.454581159970543	0.9688100687031419	2.003429739185615	-2.454581159970543	1.332883275893344	2.003429739185615	-1.840935869977909	1.332883275893344	2.003429739185615	-1.227290579985272	1.209470187442073	0.8599201166859777	0.2388928858729728	-0.09154315088913788	-0.1117374932145633	7.61027632427333	-2.622518094638434	-0.7106329891827035
35.34999999999906	4.21296440140691e-09	8.002416233845703e-10	4.440363815649541e-10	-3.97872216927308e-17	8.44526185968539e-17	-7.30666612219483e-19	-0.1972288472072572	0.1077050588117456	0.1605349783509904	-2.113173039224717	0.8454324638837546	1.72921941326032	-2.486079834722403	0.9688547842249774	2.014355479584583	-2.486079834722403	1.332944795249051	2.014355479584583	-1.864559876041802	1.332944795249051	2.014355479584583	-1.243039917361202	1.209526010654818	0.8646097066301602	0.2373719410765267	-0.09154971366371441	-0.1105998963436702	7.561824441193498	-2.622706104280999	-0.7033980509216922
35.37499999999906	4.21296440140691e-09	8.002416233845703e-10	4.440363815649541e-10	-3.97872216927308e-17	8.44526185968539e-17	-7.30666612219483e-19	-0.1996522751357577	0.1077452454891307	0.161399344534107	-2.139138422248176	0.8457479098066466	1.738530024563629	-2.516627269285142	0.9692162812157091	2.025201344923175	-2.516627269285142	1.333442140713134	2.025201344923175	-1.887470451963855	1.333442140713134	2.025201344923175	-1.258313634642571	1.20997730637032	0.8692650122818144	0.2358422846576945	-0.09156295225471385	-0.1095135865496397	7.513095036858282	-2.623085361976487	-0.6964892904519365
35.39999999999906	4.21296440140691e-09	8.002416233845703e-10	4.440363815649541e-10	-3.97872216927308e-17	8.44526185968539e-17	-7.30666612219483e-19	-0.2019764673284092	0.1078218821984473	0.16224397697246	-2.164040561813627	0.8463494707982685	1.747628071758528	-2.545923832257488	0.9699056624136549	2.035799595833402	-2.545923832257488	1.334390587368619	2.035799595833402	-1.909442874193116	1.334390587368619	2.035799595833402	-1.272961916128744	1.210837935335309	0.8738140358792641	0.2343343608905877	-0.09158132977928003	-0.1084880638611484	7.465057957387759	-2.623611839274257	-0.6899671264707032
35.42499999999906	4.21296440140691e-09	8.002416233845703e-10	4.440363815649541e-10	-3.97872216927308e-17	8.44526185968539e-17	-7.30666612219483e-19	-0.2043072776059263	0.1079706804397824	0.1630911490760622	-2.189013609660026	0.8475174648106341	1.756753475224918	-2.575303816532353	0.971244168604471	2.046429713871048	-2.575303816532353	1.336232096426019	2.046429713871048	-1.931477862399263	1.336232096426019	2.046429713871048	-1.287651908266176	1.212508937099014	0.8783767376124588	0.2328042088110849	-0.09158559145762823	-0.1074796705176509	7.416312763069294	-2.623733927365752	-0.6835539024458422
35.44999999999906	4.21296440140691e-09	8.002416233845703e-10	4.440363815649541e-10	-3.97872216927308e-17	8.44526185968539e-17	-7.30666612219483e-19	-0.2065597925971491	0.1082289240300599	0.1639539695646322	-2.21314777673194	0.8495445517201931	1.766047436916755	-2.603696884668091	0.9735671842612664	2.057256184194848	-2.603696884668091	1.339428087899071	2.057256184194848	-1.952772663501067	1.339428087899071	2.057256184194848	-1.301848442334045	1.215409008302462	0.8830237184583777	0.2313043476944633	-0.09157061719567887	-0.106478756123861	7.368532530921263	-2.62330494636024	-0.677188243371953
35.47499999999906	4.21296440140691e-09	8.002416233845703e-10	4.440363815649541e-10	-3.97872216927308e-17	8.44526185968539e-17	-7.30666612219483e-19	-0.2087924252667053	0.1085726831780509	0.1648401609677418	-2.237068918241433	0.8522428942741519	1.775593140874002	-2.631839335109395	0.9766594502961828	2.068375907305355	-2.631839335109395	1.343682409582647	2.068375907305355	-1.973879501332046	1.343682409582647	2.068375907305355	-1.315919667554698	1.219269417790027	0.8877965704370012	0.2298000770053955	-0.09154435943673833	-0.1054744276255349	7.320611825503523	-2.62255271697686	-0.6708008711269323
35.49999999999905	4.21296440140691e-09	8.002416233845703e-10	4.440363815649541e-10	-3.97872216927308e-17	8.44526185968539e-17	-7.30666612219483e-19	-0.2110048433570769	0.109003236557932	0.1657486038780265	-2.260773474275027	0.8556225294445167	1.785378529282429	-2.659726979733041	0.980532468950685	2.079774837139954	-2.659726979733041	1.349010886193875	2.079774837139954	-1.994795234799781	1.349010886193875	2.079774837139954	-1.329863489866521	1.224104525051345	0.8926892646412147	0.22829305560049	-0.09150834274844852	-0.1044758144695676	7.272603492078219	-2.621520914861333	-0.6644498475658478
35.52499999999905	4.21296440140691e-09	8.002416233845703e-10	4.440363815649541e-10	-3.97872216927308e-17	8.44526185968539e-17	-7.30666612219483e-19	-0.213264504123077	0.1094659398234035	0.1666840631729957	-2.284984203466623	0.8592545256208385	1.795454927521567	-2.688210120729975	0.9846946900884336	2.091512762270697	-2.688210120729975	1.35473724590492	2.091512762270697	-2.016157590547481	1.35473724590492	2.091512762270697	-1.344105060364988	1.229300674990607	0.8977274637607833	0.2267442693457367	-0.0914726134706023	-0.1034920573970387	7.223264679317689	-2.620497346448516	-0.6581933063730139
35.54999999999905	4.21296440140691e-09	8.002416233845703e-10	4.440363815649541e-10	-3.97872216927308e-17	8.44526185968539e-17	-7.30666612219483e-19	-0.2155138749046316	0.1099289515057563	0.1676401947081342	-2.309084682469101	0.8628889427200632	1.805753998971136	-2.716563555939989	0.988859685572847	2.103510077851348	-2.716563555939989	1.36046742254602	2.103510077851348	-2.03742266695499	1.36046742254602	2.103510077851348	-1.358281777969994	1.234500288446289	0.902876999485568	0.2251755715671782	-0.09144248257413413	-0.1025319653948757	7.173291556340502	-2.619634159848233	-0.6520872713282024
35.57499999999905	4.21296440140691e-09	8.002416233845703e-10	4.440363815649541e-10	-3.97872216927308e-17	8.44526185968539e-17	-7.30666612219483e-19	-0.2178034428133405	0.1103631557618829	0.1686723322504866	-2.333615846366609	0.8662972354979139	1.816871777125927	-2.745423678019832	0.9927655454787802	2.116461099089704	-2.745423678019832	1.365841081960576	2.116461099089704	-2.059067758514874	1.365841081960576	2.116461099089704	-1.372711839009916	1.239376394986839	0.9084358885629634	0.2235345044679848	-0.09141726966903563	-0.1015112534160945	7.121013004612611	-2.618911863322525	-0.6455957027086808
35.59999999999905	4.21296440140691e-09	8.002416233845703e-10	4.440363815649541e-10	-3.97872216927308e-17	8.44526185968539e-17	-7.30666612219483e-19	-0.1925347194393586	0.1113454220591115	0.2319351950505885	-2.062878650841583	0.8740075494331901	2.498314361265943	-2.42691011107077	1.001601466576193	2.910268751755742	-2.42691011107077	1.377997490980582	2.910268751755742	-1.820182583303079	1.377997490980582	2.910268751755742	-1.213455055535385	1.250407229090594	1.249157180632971	0.1946402662009343	-0.09242875497818583	-0.1643135544017903	6.200545504761768	-2.647888782949421	-1.045008519240348
35.62499999999905	4.21296440140691e-09	8.002416233845703e-10	4.440363815649541e-10	-3.97872216927308e-17	8.44526185968539e-17	-7.30666612219483e-19	-0.1950357796484153	0.1116227792787585	0.2327698278893187	-2.089675810983692	0.876184669061263	2.507304696721191	-2.458436104550967	1.004096417808371	2.920741530021306	-2.458436104550967	1.381430030421456	2.920741530021306	-1.843827078413224	1.381430030421456	2.920741530021306	-1.229218052275484	1.253521946032463	1.253652348360595	0.1930783802135312	-0.09235490850311494	-0.1629785265776183	6.150789381184828	-2.64577323727268	-1.036517950980403
35.64999999999905	4.21296440140691e-09	8.002416233845703e-10	4.440363815649541e-10	-3.97872216927308e-17	8.44526185968539e-17	-7.30666612219483e-19	-0.1975678116998926	0.1117109037072269	0.2336256287412501	-2.11680481336544	0.8768764030755294	2.516523045658264	-2.490352499709095	1.004889136136284	2.931479919581197	-2.490352499709095	1.382520647701252	2.931479919581197	-1.867764374781821	1.382520647701252	2.931479919581197	-1.245176249854547	1.254511581891565	1.258261522829132	0.191458334318187	-0.09232641597680952	-0.1616394361998805	6.099180490126724	-2.644956986520199	-1.028001545514868
35.67499999999905	4.21296440140691e-09	8.002416233845703e-10	4.440363815649541e-10	-3.97872216927308e-17	8.44526185968539e-17	-7.30666612219483e-19	-0.1944066862234359	0.1122698481879903	0.2397211003618938	-2.082935502536708	0.8812638461052194	2.582181059679039	-2.450506349344548	1.009917089700195	3.007964476316558	-2.450506349344548	1.389438077065167	3.007964476316558	-1.837879762008409	1.389438077065167	3.007964476316558	-1.225253174672274	1.260788519070315	1.29109052983952	0.1839627258740077	-0.09257177138445899	-0.1656744385210442	5.86039710706235	-2.651985901189714	-1.053663529494959
35.69999999999904	4.21296440140691e-09	8.002416233845703e-10	4.440363815649541e-10	-3.97872216927308e-17	8.44526185968539e-17	-7.30666612219483e-19	-0.1929284864630188	0.1125718242658143	0.2451131961506841	-2.067097596852359	0.8836342118273615	2.640262586907018	-2.431873564799584	1.012633498483116	3.075623237106043	-2.431873564799584	1.393175296520468	3.075623237106043	-1.82390517359969	1.393175296520468	3.075623237106043	-1.215936782399792	1.264179705378124	1.320131293453509	0.1781056234732922	-0.0927250910433299	-0.1689039189082004	5.673810689613683	-2.656378185874558	-1.07420251990013
